<?xml version="1.0" standalone="no"?>
<!DOCTYPE svg PUBLIC "-//W3C//DTD SVG 20010904//EN"
 "http://www.w3.org/TR/2001/REC-SVG-20010904/DTD/svg10.dtd">
<svg version="1.0" xmlns="http://www.w3.org/2000/svg"
 width="2560.000000pt" height="935.000000pt" viewBox="0 0 2560.000000 935.000000"
 preserveAspectRatio="xMidYMid meet">

<g transform="translate(0.000000,935.000000) scale(0.100000,-0.100000)"
fill="#000000" stroke="none">
<path d="M3545 9264 c-529 -40 -964 -166 -1400 -406 -310 -171 -566 -366 -840
-642 -345 -346 -582 -677 -800 -1121 -267 -543 -417 -1100 -476 -1760 -17
-194 -15 -657 5 -860 112 -1150 596 -2178 1406 -2984 717 -714 1628 -1185
2624 -1356 296 -51 417 -59 806 -60 382 0 475 6 762 50 1362 209 2614 1028
3355 2193 430 676 674 1405 743 2222 14 159 14 616 0 785 -90 1127 -525 2128
-1244 2863 -159 163 -282 270 -454 399 -641 480 -1409 721 -2150 674 -311 -20
-630 -81 -885 -171 l-117 -41 -103 36 c-203 72 -468 132 -710 160 -130 15
-432 26 -522 19z m95 -1180 c0 -3 -41 -52 -91 -109 -379 -430 -618 -954 -695
-1525 -23 -167 -23 -484 0 -635 50 -327 157 -606 335 -871 533 -796 1553
-1113 2441 -759 555 221 984 671 1178 1235 81 236 113 434 114 700 2 433 -95
832 -299 1241 -124 248 -250 431 -468 677 l-47 52 59 0 c381 -1 816 -177 1203
-487 115 -92 317 -295 420 -423 253 -313 482 -743 599 -1125 71 -235 130 -531
151 -768 15 -175 13 -550 -5 -721 -93 -886 -474 -1670 -1109 -2283 -569 -550
-1288 -894 -2088 -999 -165 -21 -587 -30 -759 -15 -408 36 -817 139 -1183 300
-723 317 -1343 884 -1731 1579 -640 1152 -610 2619 76 3714 460 734 1177 1214
1832 1227 37 0 67 -2 67 -5z m1327 -362 c271 -201 511 -524 651 -878 45 -111
82 -242 109 -379 23 -122 24 -410 0 -511 -99 -430 -397 -698 -802 -721 -500
-28 -887 353 -912 899 -22 479 200 1021 581 1416 86 89 263 232 287 232 4 0
43 -26 86 -58z"/>
<path d="M11700 6790 l0 -480 270 0 270 0 0 -1470 0 -1470 -270 0 -270 0 0
-480 0 -480 1100 0 1100 0 0 480 0 480 -270 0 -270 0 0 882 c0 494 4 878 9
873 4 -6 329 -619 722 -1362 l714 -1353 568 0 567 0 0 1950 0 1950 265 0 265
0 0 480 0 480 -1100 0 -1100 0 0 -480 0 -480 270 0 270 0 0 -882 c0 -576 -4
-878 -10 -868 -5 8 -330 621 -722 1363 l-713 1347 -832 0 -833 0 0 -480z"/>
<path d="M16820 6335 l0 -935 478 2 477 3 3 453 2 452 260 0 260 0 0 -1470 0
-1470 -352 -2 -353 -3 -3 -477 -2 -478 1345 0 1345 0 0 480 0 480 -355 0 -355
0 0 1470 0 1470 260 0 260 0 2 -452 3 -453 480 0 480 0 3 933 2 932 -2120 0
-2120 0 0 -935z"/>
<path d="M21390 6335 l0 -935 478 2 477 3 3 453 2 452 260 0 260 0 0 -1470 0
-1470 -352 -2 -353 -3 -3 -477 -2 -478 1345 0 1345 0 -2 478 -3 477 -352 3
-353 2 0 1470 0 1470 260 0 260 0 2 -452 3 -453 468 -3 467 -2 0 935 0 935
-2105 0 -2105 0 0 -935z"/>
</g>
</svg>
